<svg width="100" height="30" viewBox="0 0 100 30" fill="none" xmlns="http://www.w3.org/2000/svg">
<path d="M12.9395 0.647073C12.9395 0.715908 13.1735 1.30789 13.4764 1.99623C13.9582 3.09759 14.5502 4.48806 15.6515 7.09001C15.8443 7.54432 16.1059 8.16383 16.2435 8.46671C16.3674 8.76958 16.629 9.37533 16.808 9.8021C17.008 10.2854 17.4795 10.6006 18.0025 10.6006H18.8592H19.716C20.239 10.6006 20.7105 10.2854 20.9105 9.8021C21.0895 9.37533 21.3235 8.82465 21.4199 8.60438C21.5025 8.37034 21.7778 7.75082 21.9981 7.22768C22.2322 6.69077 22.6727 5.64448 22.9893 4.8873C23.6501 3.31786 23.6364 3.33163 24.2972 1.87233C24.5588 1.28035 24.779 0.743442 24.779 0.674607C24.779 0.606177 24.7236 0.550704 24.6551 0.550704H23.0857H22.5213C21.8309 0.550704 21.2097 0.970258 20.9518 1.61076C20.7178 2.20274 20.3048 3.20773 20.0294 3.85477C19.7541 4.50182 19.4237 5.28654 19.2998 5.60318C19.1759 5.93359 19.0382 6.19516 18.9969 6.19516C18.9556 6.19516 18.7766 5.83722 18.6114 5.39667C18.4325 4.9699 18.1434 4.26778 17.9644 3.85477C17.5652 2.90485 17.0282 1.58323 16.7942 0.991247C16.6948 0.726257 16.4415 0.550704 16.1585 0.550704H14.7842C13.7655 0.550704 12.9395 0.592005 12.9395 0.647073Z" fill="#00A8A4"/>
<path d="M28.5818 1.55558C28.334 2.14756 27.9898 2.93228 27.8246 3.31776C27.5355 3.95104 26.1037 7.22757 25.319 9.03104C25.1401 9.44405 24.9336 9.89836 24.8647 10.0223C24.7821 10.1599 24.7271 10.3251 24.7271 10.4077C24.7271 10.4838 24.7887 10.5454 24.8647 10.5454H26.4479H27.4974C27.9121 10.5454 28.2858 10.2954 28.4441 9.91213C28.5956 9.56796 28.7195 9.19625 28.7195 9.08611C28.7195 8.97967 28.8058 8.89337 28.9122 8.89337H30.7019H31.7908C32.3193 8.89337 32.7915 9.22323 32.9735 9.71939C33.1554 10.2156 33.6277 10.5454 34.1561 10.5454H35.0798H36.6778C36.7702 10.5454 36.8339 10.4527 36.8007 10.3664C36.6905 10.0773 35.8645 8.16373 35.603 7.58551C35.4653 7.28264 34.9284 6.07115 34.4328 4.90096C33.9234 3.73076 33.3589 2.45044 33.1937 2.07873C33.0285 1.69325 32.7945 1.18388 32.6981 0.936071C32.581 0.668452 32.3166 0.495528 32.0245 0.495528H30.7707H30.2087C29.5043 0.495528 28.8663 0.911239 28.5818 1.55558ZM31.1838 5.05239C31.2299 5.1745 31.2739 5.2934 31.3145 5.40582C31.511 5.95028 31.2659 6.28623 30.6881 6.25012C30.28 6.22971 30.0101 5.81749 30.1546 5.4352L30.2889 5.07993C30.5229 4.44665 30.7294 3.93727 30.7432 3.93727C30.757 3.93727 30.9497 4.44665 31.1838 5.05239Z" fill="#00A8A4"/>
<path d="M38.6592 5.5067V8.82454C38.6592 9.77495 39.4296 10.5454 40.38 10.5454H40.8481C41.54 10.5454 42.1009 9.98452 42.1009 9.29262V8.50977C42.1009 8.2648 42.3113 8.07271 42.5552 8.09489C42.8342 8.12104 43.0869 8.27051 43.2441 8.5024L43.808 9.33392C44.3248 10.0919 45.1829 10.5454 46.1003 10.5454H46.465C47.47 10.5454 48.2961 10.5041 48.2961 10.4628C48.2961 10.4215 48.1446 10.1875 47.9656 9.95343C47.7867 9.70563 47.3186 9.05858 46.9331 8.49413L46.4844 7.82112C46.3542 7.62573 46.4145 7.36106 46.6165 7.24134C47.2222 6.86963 47.7178 6.18128 47.9519 5.4241C48.2135 4.52925 48.2135 4.03364 47.9381 3.12502L47.9316 3.10229C47.8 2.6461 47.5669 2.22558 47.2498 1.87222C46.9744 1.56935 46.41 1.15634 45.9832 0.949838C45.4666 0.696046 44.8998 0.560582 44.3243 0.553297L41.9357 0.523062C40.1329 0.500337 38.6592 1.95555 38.6592 3.75856V5.5067ZM43.753 3.19385C44.0344 3.25542 44.2786 3.42907 44.4292 3.67471L44.4551 3.717L44.5332 3.84452C44.6511 4.03689 44.6921 4.2667 44.6478 4.48795C44.6065 4.68068 44.4138 4.96979 44.221 5.13499C43.9997 5.33862 43.7099 5.45163 43.4092 5.45163H42.982C42.4954 5.45163 42.1009 5.05716 42.1009 4.57055V4.28144V3.717C42.1009 3.38245 42.3721 3.11125 42.7067 3.11125C43.0371 3.11125 43.5052 3.15255 43.753 3.19385Z" fill="#00A8A4"/>
<path d="M52.8669 0.316558C52.3713 0.495528 51.7104 0.839703 51.3938 1.10127C51.0247 1.39838 50.7302 1.78228 50.5402 2.2164L50.4843 2.34686C50.3305 2.70587 50.2511 3.09238 50.2511 3.48296C50.2649 4.26768 50.6641 5.13499 51.2286 5.548C51.8206 5.98855 52.9219 6.40156 54.2711 6.69066C54.8631 6.81456 55.4826 7.03484 55.6478 7.1725L55.7243 7.23568C55.8531 7.34207 55.8623 7.53623 55.7442 7.65435C55.6203 7.77825 55.2761 7.91592 54.9594 7.95722C54.5949 8.00279 54.2253 7.98659 53.8662 7.90931L53.3212 7.79202C52.7292 7.66812 52.0408 7.43408 51.7793 7.29641C51.5177 7.14497 51.2699 7.07614 51.2011 7.1312C51.146 7.18627 50.8707 7.76448 50.5953 8.39776L50.1754 9.35104C50.1246 9.4665 50.1691 9.60173 50.2787 9.66432C50.375 9.73316 50.9533 9.95343 51.559 10.1599C52.2884 10.4061 53.053 10.5316 53.8228 10.5316H54.4501L55.2424 10.5377C55.8982 10.5428 56.5462 10.3946 57.1346 10.1049C57.6302 9.87083 58.1258 9.58172 58.2497 9.48535C58.3599 9.38899 58.6215 9.05858 58.828 8.75571C59.0702 8.3968 59.1997 7.97366 59.1997 7.54064V7.15874V6.93225C59.1997 6.40351 59.009 5.8925 58.6628 5.49294C58.3009 5.08583 57.847 4.77109 57.3388 4.57496L57.3274 4.57055C56.9006 4.40535 56.0746 4.18507 55.4964 4.06117C54.9319 3.93727 54.2849 3.7583 54.0646 3.64816L53.8886 3.55388C53.7636 3.48693 53.6958 3.34726 53.7204 3.20762C53.7479 3.08372 53.9132 2.90475 54.1059 2.79461C54.3306 2.67775 54.5841 2.62783 54.8364 2.65076L55.2072 2.68448C55.6203 2.72578 56.3086 2.87721 56.7216 3.01488C57.1346 3.16632 57.5614 3.30399 57.6578 3.33152C57.7508 3.36253 57.8519 3.31624 57.8893 3.22557L58.3048 2.2164C58.5802 1.56935 58.7591 0.977372 58.7316 0.894771C58.7041 0.812169 58.2497 0.605664 57.7266 0.426694C57.1058 0.216712 56.4578 0.0979567 55.8028 0.0741405L55.2761 0.054986L54.7103 0.0344124C54.0835 0.0116205 53.4581 0.107346 52.8669 0.316558Z" fill="#00A8A4"/>
<path d="M60.9893 5.52047V8.82454C60.9893 9.77495 61.7597 10.5454 62.7101 10.5454C63.6605 10.5454 64.431 9.77495 64.431 8.82454V5.52047V2.2164C64.431 1.26599 63.6605 0.495528 62.7101 0.495528C61.7597 0.495528 60.9893 1.26599 60.9893 2.2164V5.52047Z" fill="#00A8A4"/>
<path d="M67.1816 1.85857C67.1816 2.58088 67.7672 3.16643 68.4895 3.16643H68.6272C69.4255 3.16643 70.0727 3.81361 70.0727 4.61196V6.88351V8.81088C70.0727 9.79931 70.874 10.6006 71.8624 10.6006C72.8508 10.6006 73.6521 9.79931 73.6521 8.81088V6.88351V4.61196C73.6521 3.81361 74.2993 3.16643 75.0976 3.16643H75.2353C75.9576 3.16643 76.5432 2.58088 76.5432 1.85857C76.5432 1.13625 75.9576 0.550704 75.2353 0.550704H71.8624H68.4895C67.7672 0.550704 67.1816 1.13625 67.1816 1.85857Z" fill="#00A8A4"/>
<path d="M77.6332 0.93607C78.0324 1.61065 79.6018 4.25391 79.7533 4.48795C79.8221 4.59808 80.1525 5.16253 80.4967 5.72697C80.9019 6.39331 81.1162 7.15819 81.1162 7.93806V8.64557V8.82454C81.1162 9.77495 81.8867 10.5454 82.8371 10.5454C83.7875 10.5454 84.5579 9.77495 84.5579 8.82454V8.74194V7.52219C84.5579 7.15238 84.6788 6.7927 84.9021 6.49792C85.0948 6.25012 85.2463 5.98855 85.2463 5.90594C85.2463 5.82334 85.3564 5.61684 85.4941 5.43787C85.6318 5.2589 85.8933 4.83212 86.0861 4.48795C86.265 4.14377 86.5541 3.6757 86.7193 3.44166C86.8983 3.20762 87.036 2.98735 87.036 2.94605C87.036 2.90475 87.3526 2.35407 87.7381 1.72079C88.0462 1.20325 87.6832 0.545466 87.0811 0.530159L86.802 0.523062L85.5299 0.490723C85.3079 0.485077 85.0959 0.583637 84.9572 0.7571C84.8333 0.908537 84.379 1.65195 83.9384 2.40914C83.5116 3.18009 83.0986 3.7996 83.0298 3.7996C82.961 3.7996 82.8371 3.66193 82.7682 3.48296C82.6994 3.31776 82.4791 2.93228 82.2864 2.62941C82.1074 2.32653 81.8183 1.83092 81.6531 1.52805C81.4879 1.22518 81.2676 0.867236 81.1437 0.729567C81.0124 0.580766 80.8236 0.495528 80.6251 0.495528H79.1475H77.8839C77.6578 0.495528 77.5177 0.741662 77.6332 0.93607Z" fill="#00A8A4"/>
<path d="M86.7236 13.5327C80.377 13.574 55.6516 13.8218 42.394 13.987C36.2264 14.0696 25.0063 14.1935 17.4758 14.2623L3.77766 14.4L2.05679 14.5514L0.335922 14.7028L0.156951 14.9231C-0.0633204 15.2122 -0.0495534 15.9419 0.184485 16.2723L0.377222 16.5339L6.35208 16.5889C11.8176 16.6302 22.0602 16.5476 52.375 16.1897C58.5151 16.1071 71.3597 15.9969 80.9415 15.9143L98.3567 15.7767L98.7422 15.6115C99.1276 15.46 99.5269 14.8818 99.5269 14.4688C99.5269 14.3449 99.3479 14.0558 99.1276 13.8355L98.7284 13.4363L94.9563 13.4638C92.8912 13.4914 89.1879 13.5189 86.7236 13.5327Z" fill="#00A8A4"/>
<path d="M24.709 19.7477C24.709 19.8441 25.1908 21.0005 26.0857 23.0931C26.719 24.5799 27.6689 26.8101 28.1507 27.9803C28.2855 28.3098 28.4243 28.6229 28.534 28.8511C28.6509 29.0942 28.8391 29.3214 28.8391 29.5911C28.8391 29.7279 28.95 29.8389 29.0869 29.8389H30.6288H32.1707C32.3075 29.8389 32.4185 29.7279 32.4185 29.5911C32.4185 29.4534 32.4736 29.2882 32.5286 29.2056C32.5837 29.1368 32.8453 28.5861 33.0931 27.9803C33.3546 27.3746 33.8502 26.1906 34.2082 25.3646C34.5661 24.5248 35.0617 23.3546 35.3095 22.7489C35.5574 22.1431 35.9428 21.2483 36.1493 20.7664C36.3696 20.2846 36.5486 19.8441 36.5486 19.7752C36.5486 19.7068 36.4931 19.6513 36.4247 19.6513H34.8415H33.4345C33.2492 19.6513 33.0868 19.7754 33.038 19.9542C32.9829 20.1332 32.5149 21.2896 31.9917 22.5424C31.4548 23.7952 30.973 24.9654 30.8904 25.1581C30.8391 25.2811 30.665 25.2816 30.613 25.1589L30.4085 24.6763C30.2295 24.2219 29.6926 22.9003 29.2245 21.7439L29.0718 21.3634C28.6568 20.3291 27.6544 19.6513 26.54 19.6513C25.535 19.6513 24.709 19.6926 24.709 19.7477Z" fill="#00A8A4"/>
<path d="M38.3384 24.7451V28.118C38.3384 29.0684 39.1088 29.8389 40.0592 29.8389C41.0097 29.8389 41.7801 29.0684 41.7801 28.118V24.7451V21.3722C41.7801 20.4218 41.0097 19.6513 40.0592 19.6513C39.1088 19.6513 38.3384 20.4218 38.3384 21.3722V24.7451Z" fill="#00A8A4"/>
<path d="M43.5698 24.7451V28.118C43.5698 29.0684 44.3403 29.8389 45.2907 29.8389C46.2445 29.8389 47.021 29.0719 47.0328 28.1181L47.0391 27.6086L47.0505 26.9942C47.0609 26.4383 47.7547 26.1923 48.1129 26.6174C48.6774 27.292 49.2831 27.9941 49.4483 28.1731C49.6273 28.352 49.9852 28.7926 50.2743 29.1643C50.5951 29.5891 51.0967 29.8389 51.629 29.8389H52.2017C52.9848 29.8389 53.6197 29.204 53.6197 28.4209V24.7451V21.3034C53.6197 20.391 52.8801 19.6513 51.9677 19.6513C51.0521 19.6513 50.3068 20.3877 50.2957 21.3032L50.2881 21.9366L50.262 23.374C50.2569 23.6506 49.9064 23.7665 49.7374 23.5474C49.4483 23.1894 49.0353 22.6663 48.8013 22.4047C48.5672 22.1431 48.2368 21.7577 48.0716 21.5649C47.9064 21.3722 47.4659 20.8628 47.0942 20.436C46.6752 19.9385 46.0579 19.6513 45.4075 19.6513H45.0016C44.2108 19.6513 43.5698 20.2923 43.5698 21.0831V24.7451Z" fill="#00A8A4"/>
<path d="M55.4092 24.7451V25.5711C55.4092 27.9281 57.3199 29.8389 59.6769 29.8389H62.6368C63.3591 29.8389 63.9447 29.2533 63.9447 28.531C63.9447 27.8087 63.3591 27.2231 62.6368 27.2231H61.3978H59.5393C59.1591 27.2231 58.8509 26.915 58.8509 26.5348C58.8509 26.1546 59.1591 25.8464 59.5393 25.8464H60.9848H61.8797C62.5639 25.8464 63.1187 25.2917 63.1187 24.6074C63.1187 23.9231 62.5639 23.3684 61.8797 23.3684H60.9848H59.4016C59.0975 23.3684 58.8509 23.1218 58.8509 22.8177C58.8509 22.5136 59.0975 22.267 59.4016 22.267H61.2601H62.3615C63.0838 22.267 63.6694 21.6815 63.6694 20.9592C63.6694 20.2369 63.0838 19.6513 62.3615 19.6513H59.5393C57.2583 19.6513 55.4092 21.5004 55.4092 23.7814V24.7451Z" fill="#00A8A4"/>
<path d="M69.5203 19.5651C69.3 19.5927 68.7218 19.7441 68.2675 19.8955L68.1215 19.9434C67.665 20.0931 67.2488 20.3451 66.9046 20.6803C66.6155 20.9556 66.2713 21.4374 66.1336 21.7403C65.9614 22.1029 65.872 22.4992 65.872 22.9006V22.938V23.0062C65.872 23.3874 65.9567 23.7638 66.1198 24.1082C66.6155 25.1683 67.2212 25.5262 69.4652 26.0769L70.886 26.4206C71.0712 26.4655 71.2355 26.5725 71.3513 26.724C71.4511 26.8621 71.4232 27.0545 71.2884 27.1587L71.2274 27.2058C71.0408 27.3657 70.8032 27.4536 70.5575 27.4536H70.1123C69.5652 27.4536 69.0216 27.3654 68.5026 27.1924L68.0472 27.0406C67.3726 26.8066 66.7944 26.6276 66.7669 26.6276C66.7394 26.6276 66.6155 26.9167 66.4778 27.2746C66.3401 27.6463 66.1198 28.1419 65.9822 28.3898C65.8445 28.6376 65.7344 28.8991 65.7344 28.968C65.7344 29.1056 66.5329 29.4911 67.4552 29.8078C67.8198 29.9353 68.2032 30.0005 68.5894 30.0005H70.0021H71.3022C71.7609 30.0005 72.2143 29.9019 72.6316 29.7114C73.4852 29.3121 74.2561 28.5963 74.559 27.9354C74.7312 27.5729 74.8206 27.1765 74.8206 26.7751V26.6276V26.5056C74.8206 26.0894 74.7114 25.6805 74.5039 25.3197C74.3052 24.9674 74.0211 24.6708 73.6777 24.4571L73.5815 24.3973C73.1713 24.1421 72.722 23.9559 72.2515 23.8461L71.723 23.7228C71.0484 23.5576 70.2224 23.3373 69.9058 23.2271L69.5608 23.1068C69.4129 23.0552 69.3138 22.9157 69.3138 22.7591C69.3138 22.6013 69.4104 22.4595 69.5572 22.4018L69.6993 22.3461C69.9438 22.2464 70.2079 22.2041 70.4714 22.2224L71.0622 22.2635L71.3201 22.2816C71.7963 22.3152 72.2632 22.4301 72.7005 22.6214L73.1861 22.8338C73.2859 22.8775 73.4027 22.8395 73.4576 22.7453C73.5265 22.6489 73.7743 22.0845 74.0083 21.4787L74.3547 20.6072C74.4018 20.4888 74.3609 20.3535 74.2561 20.281C73.967 20.102 72.6592 19.7441 71.8056 19.5927C71.0347 19.4688 70.305 19.455 69.5203 19.5651Z" fill="#00A8A4"/>
</svg>
